# xmcd
#
# Track frame offsets: 
#        182
#        11707
#        24707
#        35420
#        45795
#        56545
#        67982
#        79720
#        91357
#        102920
#        115607
#        128707
#        139995
#        148482
#
# Disc length: 2117 seconds
#
# Revision: 2
# Processed by: cddbd v1.5.2PL0 Copyright (c) Steve Scherf et al.
# Submitted via: ExactAudioCopyFreeDBPlugin 1.0
#
DISCID=b908430e
DTITLE=Patsy Cline - The great Patsy Cline
DYEAR=1993
DGENRE=Pop
TTITLE0=Walkin' After Midnight
TTITLE1=Life's Railway To Heaven
TTITLE2=Honky Tonk Merry-Go-Round
TTITLE3=Pick Me Up On Your Way Down
TTITLE4=Stop, Look And Listen
TTITLE5=The Heart You Break May Be Your Own
TTITLE6=Never No More
TTITLE7=In Care Of The Blues
TTITLE8=I've Lost And Loved Again
TTITLE9=Just A Closer Walk With Thee
TTITLE10=If I Could See The World (Trough The Eyes Of A Child)
TTITLE11=Cry Not For Me
TTITLE12=Come On In
TTITLE13=Walking Dream
EXTD=
EXTT0=
EXTT1=
EXTT2=
EXTT3=
EXTT4=
EXTT5=
EXTT6=
EXTT7=
EXTT8=
EXTT9=
EXTT10=
EXTT11=
EXTT12=
EXTT13=
PLAYORDER=
